<svg xmlns="http://www.w3.org/2000/svg" width="63" height="54.754" viewBox="0 0 63 54.754">
  <g id="Group_36" data-name="Group 36" transform="translate(-156 -319)">
    <g id="XMLID_1032_" transform="translate(156 285.491)">
      <path id="XMLID_1044_" d="M61.767,77.927H60.29v-20.8a4.868,4.868,0,0,0,2.052-6.785l-8.32-14.411a4.853,4.853,0,0,0-8.405,0L42.116,42H8.859a6.159,6.159,0,0,0-6.152,6.152V77.927H1.23A1.231,1.231,0,0,0,0,79.158v2.953a6.159,6.159,0,0,0,6.152,6.152H56.846A6.159,6.159,0,0,0,63,82.111V79.158a1.23,1.23,0,0,0-1.23-1.23Zm-51.186,0V49.874H37.57l-.273.472a4.853,4.853,0,0,0,4.2,7.279H52.416v20.3Zm44.3-20.3h2.953v20.3H54.876Zm-7.128-20.46a2.392,2.392,0,0,1,4.143,0l8.32,14.411a2.392,2.392,0,0,1-2.072,3.588H41.5a2.392,2.392,0,0,1-2.071-3.588ZM5.167,48.151A3.7,3.7,0,0,1,8.859,44.46H40.7l-1.7,2.953H9.351a1.231,1.231,0,0,0-1.23,1.23V77.927H5.167Zm55.369,33.96A3.7,3.7,0,0,1,56.846,85.8H6.152a3.7,3.7,0,0,1-3.691-3.691V80.388H25.072a3.938,3.938,0,0,0,3.74,2.707h5.373a3.938,3.938,0,0,0,3.74-2.707H60.537Z" fill="#d8d8d8"/>
      <path id="XMLID_1066_" d="M176.569,299.01h5.249a1.23,1.23,0,1,0,0-2.461h-5.249a1.23,1.23,0,1,0,0,2.461Z" transform="translate(-153.765 -230.675)" fill="#d8d8d8"/>
      <path id="XMLID_1068_" d="M284.553,296.549H272.228a1.23,1.23,0,0,0,0,2.461h12.325a1.23,1.23,0,0,0,0-2.461Z" transform="translate(-237.654 -230.675)" fill="#d8d8d8"/>
      <path id="XMLID_1079_" d="M192.9,203.026h5.249a1.23,1.23,0,1,0,0-2.461H192.9a1.23,1.23,0,0,0,0,2.461Z" transform="translate(-168.087 -146.501)" fill="#d8d8d8"/>
      <path id="XMLID_1082_" d="M236.731,344.541h-8a1.23,1.23,0,1,0,0,2.461h8a1.23,1.23,0,1,0,0-2.461Z" transform="translate(-199.511 -272.762)" fill="#d8d8d8"/>
      <path id="XMLID_1085_" d="M130.67,344.541H122.9a1.23,1.23,0,1,0,0,2.461h7.772a1.23,1.23,0,1,0,0-2.461Z" transform="translate(-106.698 -272.762)" fill="#d8d8d8"/>
      <path id="XMLID_1087_" d="M227.5,249.786a1.231,1.231,0,0,0,1.23,1.23h8a1.23,1.23,0,0,0,0-2.461h-8A1.23,1.23,0,0,0,227.5,249.786Z" transform="translate(-199.511 -188.587)" fill="#d8d8d8"/>
      <path id="XMLID_1088_" d="M131.9,249.786a1.231,1.231,0,0,0-1.23-1.23H122.9a1.23,1.23,0,1,0,0,2.461h7.772A1.23,1.23,0,0,0,131.9,249.786Z" transform="translate(-106.698 -188.587)" fill="#d8d8d8"/>
      <path id="XMLID_1089_" d="M122.063,299.01h1.579a1.23,1.23,0,1,0,0-2.461h-1.579a1.23,1.23,0,1,0,0,2.461Z" transform="translate(-105.965 -230.675)" fill="#d8d8d8"/>
      <path id="XMLID_1091_" d="M122.063,203.026h3.589a1.23,1.23,0,0,0,0-2.461h-3.589a1.23,1.23,0,0,0,0,2.461Z" transform="translate(-105.965 -146.501)" fill="#d8d8d8"/>
      <path id="XMLID_1092_" d="M394.374,94.975A1.477,1.477,0,0,0,395.85,93.5V89.487a1.477,1.477,0,0,0-2.953,0V93.5A1.477,1.477,0,0,0,394.374,94.975Z" transform="translate(-344.554 -47.795)" fill="#d8d8d8"/>
      <circle id="XMLID_1093_" cx="1.477" cy="1.477" r="1.477" transform="translate(48.343 49.687)" fill="#d8d8d8"/>
    </g>
  </g>
</svg>
